<?xml version="1.0" encoding="UTF-8" standalone="no"?>
<svg
   width="3200"
   height="900"
   viewBox="0 0 3200 900"
   version="1.1"
   id="svg6"
   sodipodi:docname="logo-full.svg"
   inkscape:version="1.4.2 (f4327f4, 2025-05-13)"
   xml:space="preserve"
   xmlns:inkscape="http://www.inkscape.org/namespaces/inkscape"
   xmlns:sodipodi="http://sodipodi.sourceforge.net/DTD/sodipodi-0.dtd"
   xmlns="http://www.w3.org/2000/svg"
   xmlns:svg="http://www.w3.org/2000/svg"
   xmlns:rdf="http://www.w3.org/1999/02/22-rdf-syntax-ns#"
   xmlns:cc="http://creativecommons.org/ns#"
   xmlns:dc="http://purl.org/dc/elements/1.1/"><title
     id="title26">chemschema</title><sodipodi:namedview
     pagecolor="#ffffff"
     bordercolor="#000000"
     borderopacity="0"
     objecttolerance="10"
     gridtolerance="10"
     guidetolerance="10"
     inkscape:pageopacity="0"
     inkscape:pageshadow="2"
     inkscape:window-width="1267"
     inkscape:window-height="685"
     id="namedview18"
     showgrid="false"
     inkscape:zoom="0.1767767"
     inkscape:cx="1414.2136"
     inkscape:cy="-48.083261"
     inkscape:window-x="0"
     inkscape:window-y="0"
     inkscape:window-maximized="0"
     inkscape:current-layer="svg6"
     inkscape:showpageshadow="2"
     inkscape:pagecheckerboard="false"
     inkscape:deskcolor="#d1d1d1"
     showguides="true"><sodipodi:guide
       position="-128,1048"
       orientation="0.70710678,-0.70710678"
       id="guide27"
       inkscape:locked="false" /></sodipodi:namedview><metadata
     id="metadata12"><rdf:RDF><cc:Work
         rdf:about=""><dc:format>image/svg+xml</dc:format><dc:type
           rdf:resource="http://purl.org/dc/dcmitype/StillImage" /><dc:title>chemschema</dc:title><dc:creator><cc:Agent><dc:title>Anton Siomchen</dc:title></cc:Agent></dc:creator></cc:Work></rdf:RDF></metadata><defs
     id="defs10"><rect
       x="3280"
       y="656"
       width="116"
       height="120"
       id="rect29" /><rect
       x="2332"
       y="628"
       width="132"
       height="36"
       id="rect28" /><rect
       x="97.22718"
       y="48.436813"
       width="225.43206"
       height="44.391745"
       id="rect26" /></defs><g
     id="g29"
     transform="translate(-70,16)"><path
       id="path1225-6"
       style="fill:#009e60;fill-opacity:1;stroke:none;stroke-width:27.3811;stroke-miterlimit:4;stroke-dasharray:none;stroke-opacity:1;stop-color:#000000"
       d="m 643.61294,474.10679 c -4.81007,23.53411 -76.25677,40.46903 -162.45906,40.47208 -86.24258,-0.005 -157.73386,-16.92612 -162.48774,-40.47208 v 88.83382 c -0.0412,24.54542 72.7211,44.44885 162.48774,44.44697 89.75539,-0.003 162.50025,-19.9046 162.45906,-44.44697 z m -57.06551,50.04805 c 12.9473,0.0147 23.43522,11.05288 23.43354,24.66268 0.002,13.60979 -10.48624,24.6478 -23.43354,24.66269 -12.95849,0.002 -23.4638,-11.04114 -23.46219,-24.66269 -0.002,-13.62154 10.5037,-24.66441 23.46219,-24.66268 z"
       sodipodi:nodetypes="cccccccccccc" /><path
       id="path1225"
       style="fill:#009e60;fill-opacity:1;stroke:none;stroke-width:27.3811;stroke-miterlimit:4;stroke-dasharray:none;stroke-opacity:1;stop-color:#000000"
       d="m 643.32161,352.51474 c -4.8101,23.53411 -76.25678,40.46903 -162.45908,40.47207 -86.24256,-0.005 -157.73385,-16.92611 -162.48774,-40.47207 v 88.83382 c -0.0412,24.54541 72.72112,44.44884 162.48774,44.44698 89.7554,-0.003 162.50024,-19.90462 162.45908,-44.44698 z m -57.06553,50.04806 c 12.9473,0.0146 23.4352,11.05286 23.43356,24.66266 0.002,13.6098 -10.48626,24.6478 -23.43356,24.66267 -12.95847,0.002 -23.46376,-11.04114 -23.46216,-24.66267 -0.002,-13.62152 10.50369,-24.66439 23.46216,-24.66266 z"
       sodipodi:nodetypes="cccccccccccc" /><ellipse
       style="fill:#009e60;fill-opacity:1;stroke:none;stroke-width:27.3811;stroke-miterlimit:4;stroke-dasharray:none;stroke-opacity:1;stop-color:#000000"
       id="path1225-2-9"
       cx="480.85751"
       cy="321.13712"
       rx="162.47542"
       ry="44.426624" /></g><g
     style="fill:#008000;stroke-width:2.47279391;stroke-dasharray:none;shape-rendering:geometricPrecision"
     id="g26"
     transform="matrix(12.132026,0,0,12.132026,-822.11494,-384.63957)"><path
       d="M 101.61293,39.617421 75.676967,54.55415 V 84.427609 L 101.61293,99.364338 127.54889,84.427609 V 54.55415 Z m 0,1.395363 24.72815,14.239048 V 83.729927 L 101.61293,97.968975 76.884769,83.729927 V 55.251832 Z m -0.31784,4.852059 -20.055877,11.543459 0.603901,1.078235 20.087656,-11.575172 z M 121.0649,57.94742 v 23.118632 h 1.23958 V 57.94742 Z m -39.190002,22.579514 -0.635685,1.046523 20.055877,11.575172 0.63568,-1.078235 z"
       fill="#000000"
       id="path1"
       style="fill:#009e60;fill-opacity:1;stroke-width:2.81074241;stroke-dasharray:none"
       inkscape:label="path1" /></g><text
     xml:space="preserve"
     id="text26"
     style="font-style:normal;font-variant:normal;font-weight:bold;font-stretch:normal;font-size:33.9832px;font-family:Gadugi;-inkscape-font-specification:'Gadugi Bold';text-align:start;writing-mode:lr-tb;direction:ltr;white-space:pre;shape-inside:url(#rect26);display:inline;fill:#009e60;fill-opacity:1;fill-rule:evenodd;stroke:#ffffff;stroke-width:2;stroke-linecap:round;stroke-dasharray:none;stroke-opacity:0"
     transform="matrix(10.59348,0,0,10.59348,-228.16907,-259.05343)"><tspan
       x="97.226562"
       y="79.048018"
       id="tspan1">ChemSchema</tspan></text></svg>
